HIERARCHY
ROOT Hips
{
	OFFSET -0.001795 -0.223333 0.028219
	CHANNELS 6 Xposition Yposition Zposition Zrotation Yrotation Xrotation 
	JOINT LeftUpLeg
	{
		OFFSET 0.069520 -0.091406 -0.006815
		CHANNELS 3 Zrotation Yrotation Xrotation
		JOINT LeftLeg
		{
			OFFSET 0.034277 -0.375199 -0.004496
			CHANNELS 3 Zrotation Yrotation Xrotation
			JOINT LeftFoot
			{
				OFFSET -0.013596 -0.397961 -0.043693
				CHANNELS 3 Zrotation Yrotation Xrotation
				JOINT LeftToe
				{
					OFFSET 0.026358 -0.055791 0.119288
					CHANNELS 3 Zrotation Yrotation Xrotation
					End Site
					{
						OFFSET 0.000000 0.000000 0.000000
					}
				}
			}
		}
	}
	JOINT RightUpLeg
	{
		OFFSET -0.067670 -0.090522 -0.004320
		CHANNELS 3 Zrotation Yrotation Xrotation
		JOINT RightLeg
		{
			OFFSET -0.038290 -0.382569 -0.008850
			CHANNELS 3 Zrotation Yrotation Xrotation
			JOINT RightFoot
			{
				OFFSET 0.015774 -0.398415 -0.042312
				CHANNELS 3 Zrotation Yrotation Xrotation
				JOINT RightToe
				{
					OFFSET -0.025372 -0.048144 0.123348
					CHANNELS 3 Zrotation Yrotation Xrotation
					End Site
					{
						OFFSET 0.000000 0.000000 0.000000
					}
				}
			}
		}
	}
	JOINT Spine
	{
		OFFSET -0.002533 0.108963 -0.026696
		CHANNELS 3 Zrotation Yrotation Xrotation
		JOINT Spine1
		{
			OFFSET 0.005487 0.135180 0.001092
			CHANNELS 3 Zrotation Yrotation Xrotation
			JOINT Spine2
			{
				OFFSET 0.001457 0.052922 0.025425
				CHANNELS 3 Zrotation Yrotation Xrotation
				JOINT Neck
				{
					OFFSET -0.002778 0.213870 -0.042857
					CHANNELS 3 Zrotation Yrotation Xrotation
					JOINT Head
					{
						OFFSET 0.005152 0.064970 0.051349
						CHANNELS 3 Zrotation Yrotation Xrotation
						End Site
						{
							OFFSET 0.000000 0.000000 0.000000
						}
					}
				}
				JOINT LeftShoulder
				{
					OFFSET 0.078845 0.121749 -0.034090
					CHANNELS 3 Zrotation Yrotation Xrotation
					JOINT LeftArm
					{
						OFFSET 0.090977 0.030469 -0.008868
						CHANNELS 3 Zrotation Yrotation Xrotation
						JOINT LeftForeArm
						{
							OFFSET 0.259612 -0.012772 -0.027456
							CHANNELS 3 Zrotation Yrotation Xrotation
							JOINT LeftHand
							{
								OFFSET 0.249234 0.008986 -0.001171
								CHANNELS 3 Zrotation Yrotation Xrotation
								End Site
								{
									OFFSET 0.000000 0.000000 0.000000
								}
							}
						}
					}
				}
				JOINT RightShoulder
				{
					OFFSET -0.081759 0.118833 -0.038615
					CHANNELS 3 Zrotation Yrotation Xrotation
					JOINT RightArm
					{
						OFFSET -0.096012 0.032551 -0.009143
						CHANNELS 3 Zrotation Yrotation Xrotation
						JOINT RightForeArm
						{
							OFFSET -0.253742 -0.013329 -0.021401
							CHANNELS 3 Zrotation Yrotation Xrotation
							JOINT RightHand
							{
								OFFSET -0.255298 0.007772 -0.005559
								CHANNELS 3 Zrotation Yrotation Xrotation
								End Site
								{
									OFFSET 0.000000 0.000000 0.000000
								}
							}
						}
					}
				}
			}
		}
	}
}
MOTION
Frames: 18
Frame Time: 0.050000
-1.618454 0.949485 0.855570 -1.030213 1.123331 4.614869 -2.011366 -0.659411 -6.563719 5.036579 -0.560305 0.317483 -3.959148 -5.916171 4.197579 0.000000 0.000000 0.000000 3.329524 0.073425 -1.428002 -2.198789 0.259659 0.454585 -7.150701 -17.874082 3.481777 0.000000 0.000000 0.000000 -1.807830 0.065041 -0.861350 -2.703486 1.275454 0.273237 0.145734 11.664170 3.618142 10.674838 -4.866722 -13.020721 0.000000 0.000000 0.000000 -17.536644 -8.185867 -0.628907 -44.336270 -7.817002 -1.424391 -116.055106 -54.717842 76.314709 0.000000 0.000000 0.000000 0.529417 20.210920 8.043272 6.759542 23.124668 -0.497136 -31.598135 32.388450 -6.391038 0.000000 0.000000 0.000000 
-1.620713 0.948539 0.859034 -1.135012 -0.797832 5.168208 -1.734600 -0.622269 -6.263829 5.062465 -0.525149 -0.309643 -3.041286 -4.203898 4.189047 0.000000 0.000000 0.000000 3.024770 0.058175 -1.383675 -1.965894 0.197211 -0.067419 -5.794706 -14.830084 3.110655 0.000000 0.000000 0.000000 -2.012416 0.120061 -2.733471 -2.164707 1.022733 0.697534 0.329133 8.271635 3.882940 7.977661 -3.744899 -11.643301 0.000000 0.000000 0.000000 -18.579429 -6.755190 -0.325758 -44.690591 -8.161242 -1.655547 -115.139242 -55.555210 79.222446 0.000000 0.000000 0.000000 2.519879 17.376226 6.945440 10.480640 21.297365 -0.267662 -42.235655 45.008775 -14.209103 0.000000 0.000000 0.000000 
-1.622490 0.948101 0.862157 -1.021408 -2.436053 5.081319 -1.685220 -0.503903 -5.086150 4.604396 -0.425688 -1.145680 -2.595551 -3.403872 4.210849 0.000000 0.000000 0.000000 2.663099 0.076040 -1.522591 -1.887413 0.202043 0.252252 -4.996483 -13.013793 2.930078 0.000000 0.000000 0.000000 -2.142563 0.141488 -3.439229 -1.571478 0.744038 0.929508 -0.235820 5.573596 3.885975 6.617731 -3.285755 -10.661081 0.000000 0.000000 0.000000 -19.338214 -6.170891 0.226894 -44.715829 -8.919762 -1.660094 -115.150667 -57.008293 83.203637 0.000000 0.000000 0.000000 4.694106 14.377304 5.697110 14.448237 17.618150 -0.177558 -56.356834 58.932021 -29.042459 0.000000 0.000000 0.000000 
-1.624147 0.947373 0.864508 -1.084418 -4.235366 4.927278 -1.680478 -0.427423 -4.281385 4.584520 -0.425333 -1.288925 -1.562903 -1.503333 4.118967 0.000000 0.000000 0.000000 2.010003 0.040945 -1.135886 -1.168908 0.100465 -0.233231 -4.058387 -10.891441 2.833872 0.000000 0.000000 0.000000 -2.116250 0.171846 -4.387027 -1.246941 0.595805 1.037478 -0.346734 2.620750 4.664738 4.622065 -2.316478 -10.203330 0.000000 0.000000 0.000000 -19.744946 -4.955885 0.640603 -45.330500 -9.666077 -1.793142 -114.997931 -57.646989 86.261408 0.000000 0.000000 0.000000 5.851255 11.554962 4.215326 18.388597 14.445738 -0.192047 -76.355126 70.254308 -53.712127 0.000000 0.000000 0.000000 
-1.625729 0.946595 0.866062 -0.975513 -5.742752 4.861050 -1.582501 -0.372434 -3.709953 4.402531 -0.406041 -1.438152 -1.258121 -1.023435 4.021636 0.000000 0.000000 0.000000 1.435615 0.071736 -1.295678 -0.827347 0.076427 -0.018574 -3.698485 -10.054142 2.712295 0.000000 0.000000 0.000000 -2.101713 0.192609 -4.878593 -0.977011 0.472490 1.081210 -0.738027 0.327754 4.733707 3.469098 -1.816144 -9.676979 0.000000 0.000000 0.000000 -20.613960 -4.194830 1.016433 -44.897440 -10.754222 -1.633944 -114.725327 -58.474865 88.702248 0.000000 0.000000 0.000000 6.796861 9.365111 2.994255 21.290977 9.902530 -0.564934 -122.981006 78.066695 -109.114928 0.000000 0.000000 0.000000 
-1.627112 0.946173 0.866784 -1.034615 -7.547681 4.593437 -1.436443 -0.309743 -3.050586 4.271446 -0.417435 -1.263804 -0.701640 -0.025579 3.993528 0.000000 0.000000 0.000000 1.150956 0.094420 -1.466084 -0.681010 0.062781 0.024419 -2.897211 -8.074136 2.212747 0.000000 0.000000 0.000000 -1.902818 0.214798 -5.268136 -0.880664 0.435801 1.179378 -0.623186 -1.592678 4.774682 1.781913 -0.918855 -9.057936 0.000000 0.000000 0.000000 -21.604348 -3.157740 1.241848 -44.710849 -10.890983 -1.839307 -115.471231 -58.332250 91.085222 0.000000 0.000000 0.000000 7.440379 7.736358 1.962649 23.141026 6.538464 -0.926913 -172.406029 75.002087 -168.503435 0.000000 0.000000 0.000000 
-1.628318 0.945640 0.867198 -0.892502 -8.745706 4.252272 -1.426353 -0.237795 -2.309636 4.162300 -0.402692 -1.430539 -0.838764 -0.293372 4.186124 0.000000 0.000000 0.000000 0.734941 0.095766 -1.361552 -0.526072 0.061734 0.320298 -2.728892 -7.547718 1.871641 0.000000 0.000000 0.000000 -1.647358 0.217925 -5.145334 -1.142852 0.574195 1.453073 -0.738686 -2.988690 4.571686 0.932912 -0.452751 -9.434548 0.000000 0.000000 0.000000 -22.367167 -2.866700 1.661024 -44.073167 -11.328655 -1.852362 -115.874752 -58.329522 92.624626 0.000000 0.000000 0.000000 7.521791 5.927869 0.988771 24.996461 3.410354 -1.395500 167.723005 66.747700 161.496604 0.000000 0.000000 0.000000 
-1.629319 0.945158 0.867348 -0.753257 -10.294970 3.886376 -1.166606 -0.185346 -1.773262 3.942668 -0.393094 -1.381239 -0.654295 -0.011192 4.182586 0.000000 0.000000 0.000000 0.420652 0.082291 -1.129910 -0.502309 0.073141 0.628685 -2.225917 -6.136040 1.341702 0.000000 0.000000 0.000000 -1.480156 0.228128 -5.205169 -1.357866 0.702782 1.988175 -0.406344 -3.629602 4.017560 -0.507686 0.428955 -8.939942 0.000000 0.000000 0.000000 -23.251451 -2.508272 1.903949 -43.514424 -11.165372 -2.032829 -115.641090 -58.293760 93.016714 0.000000 0.000000 0.000000 7.702179 4.920641 0.388237 25.929671 1.187085 -1.752949 161.537386 60.462112 147.560672 0.000000 0.000000 0.000000 
-1.630093 0.944782 0.867152 -0.686752 -11.410136 3.584611 -1.232049 -0.110898 -1.027412 3.940870 -0.376685 -1.732777 -0.674331 -0.042358 4.400638 0.000000 0.000000 0.000000 0.236060 0.078258 -1.019776 -0.605483 0.092562 0.853806 -1.901955 -5.350303 1.286100 0.000000 0.000000 0.000000 -1.367033 0.233713 -5.214310 -1.516751 0.798672 2.232675 -0.112412 -4.146999 3.990481 -0.943415 0.654806 -9.397677 0.000000 0.000000 0.000000 -23.500928 -2.322993 2.152185 -43.270391 -10.706632 -2.292330 -115.043734 -57.690091 92.178854 0.000000 0.000000 0.000000 8.454518 4.208068 -0.159515 26.575188 0.658136 -1.836738 160.345513 57.022507 142.433416 0.000000 0.000000 0.000000 
-1.630555 0.944266 0.866276 -0.690455 -12.173688 3.220274 -1.259770 -0.059969 -0.529050 4.078795 -0.392168 -1.798234 -0.443057 0.326295 4.227501 0.000000 0.000000 0.000000 0.211326 0.067589 -0.896939 -0.765494 0.108629 0.897201 -1.508721 -4.452240 1.317918 0.000000 0.000000 0.000000 -1.417427 0.222583 -4.959350 -1.417166 0.768053 2.590074 0.169728 -4.392182 3.577226 -1.307870 0.864517 -9.419914 0.000000 0.000000 0.000000 -23.364002 -2.531938 2.464657 -43.039491 -9.762001 -2.632290 -115.089378 -57.334728 92.106378 0.000000 0.000000 0.000000 9.829604 4.528190 -0.379004 27.334370 0.807679 -1.785453 160.086770 55.962632 140.846562 0.000000 0.000000 0.000000 
-1.630889 0.943776 0.864583 -0.693327 -12.857080 2.989928 -1.214269 -0.021718 -0.161197 4.030123 -0.398386 -1.700296 -0.128782 0.962295 4.398908 0.000000 0.000000 0.000000 0.193015 0.078912 -1.013273 -0.834475 0.122382 1.055811 -1.118776 -3.560863 1.343284 0.000000 0.000000 0.000000 -1.579595 0.218240 -4.890950 -1.375263 0.776876 3.188856 0.863027 -4.310013 3.186029 -1.591290 1.038111 -9.379417 0.000000 0.000000 0.000000 -22.698890 -2.529206 2.508059 -43.059557 -8.883956 -2.886577 -114.864635 -56.016629 90.478951 0.000000 0.000000 0.000000 11.822844 5.246970 -0.523959 28.414334 1.449404 -1.640343 159.461105 57.162092 140.534433 0.000000 0.000000 0.000000 
-1.631127 0.943405 0.862216 -0.686441 -13.819965 2.835211 -1.051508 0.004184 0.093736 3.903043 -0.392414 -1.680111 0.731658 2.596732 4.295847 0.000000 0.000000 0.000000 0.199503 0.102676 -1.281629 -0.894743 0.129163 1.096855 -0.745310 -2.842249 1.575137 0.000000 0.000000 0.000000 -1.640023 0.217034 -4.816691 -1.227163 0.726321 3.489234 1.290480 -4.001665 3.061383 -2.037363 1.321862 -9.694207 0.000000 0.000000 0.000000 -22.517321 -3.159002 2.946134 -42.442074 -7.952657 -3.177404 -115.154217 -56.012991 90.836057 0.000000 0.000000 0.000000 13.322830 6.462062 -0.325617 29.908784 2.490580 -1.448294 159.634403 58.100165 141.413726 0.000000 0.000000 0.000000 
-1.631422 0.943177 0.859574 -0.784980 -14.435913 2.759087 -0.890735 0.000949 0.070660 3.776018 -0.377651 -1.755459 1.065454 3.309489 4.698337 0.000000 0.000000 0.000000 0.376441 0.097363 -1.313069 -0.951012 0.123665 0.910934 -0.270810 -1.752888 1.592363 0.000000 0.000000 0.000000 -1.768453 0.212934 -4.724565 -1.200427 0.751806 4.151286 2.049593 -3.637583 2.658548 -2.058302 1.337549 -9.632592 0.000000 0.000000 0.000000 -22.355342 -3.572713 3.180417 -41.446390 -6.990814 -3.407768 -115.585547 -55.226039 90.287781 0.000000 0.000000 0.000000 14.827557 7.713035 -0.047989 31.507864 3.711803 -1.187343 159.432509 59.133771 141.820222 0.000000 0.000000 0.000000 
-1.631785 0.943076 0.857094 -0.770006 -15.317318 2.538427 -0.709732 0.031540 0.358829 3.563202 -0.360183 -1.752842 1.570398 4.293249 4.882856 0.000000 0.000000 0.000000 0.518605 0.108828 -1.506762 -0.968889 0.129831 1.015118 0.190272 -0.807794 1.765786 0.000000 0.000000 0.000000 -1.967995 0.202590 -4.497339 -1.112651 0.723051 4.193426 2.466122 -2.768495 2.853458 -2.238128 1.481822 -9.460354 0.000000 0.000000 0.000000 -22.007910 -4.138598 3.407327 -39.972195 -6.571539 -3.450152 -115.573424 -55.536087 90.383445 0.000000 0.000000 0.000000 15.881558 9.327491 0.611160 32.030245 5.501046 -0.769047 159.261576 60.071437 142.413234 0.000000 0.000000 0.000000 
-1.632037 0.943328 0.855035 -0.778087 -15.702779 2.348043 -0.612325 0.031451 0.356221 3.500934 -0.356618 -1.741109 1.703142 4.610411 5.377308 0.000000 0.000000 0.000000 0.494720 0.115045 -1.562943 -1.127387 0.136413 0.893015 0.472408 -0.347802 2.032458 0.000000 0.000000 0.000000 -2.203703 0.193257 -4.335066 -1.228392 0.797159 4.343310 3.069493 -2.030277 2.926768 -2.069944 1.395261 -9.447976 0.000000 0.000000 0.000000 -21.472781 -4.639363 3.535926 -38.328368 -5.989923 -3.476449 -116.272236 -54.929650 90.153996 0.000000 0.000000 0.000000 16.063526 10.829209 1.420143 31.990107 7.139693 -0.413185 159.291201 60.679532 143.189196 0.000000 0.000000 0.000000 
-1.632102 0.943732 0.853559 -0.765743 -15.909227 2.169363 -0.641925 0.043702 0.471115 3.461229 -0.338485 -1.986542 1.665861 4.609394 5.922067 0.000000 0.000000 0.000000 0.626703 0.121712 -1.685857 -1.458165 0.164129 0.886049 0.768119 -0.008294 2.501023 0.000000 0.000000 0.000000 -2.330851 0.183699 -4.138839 -1.131773 0.754528 4.425475 3.198919 -1.270906 2.860280 -1.496394 1.051408 -8.906522 0.000000 0.000000 0.000000 -21.028977 -4.987751 3.515613 -36.807359 -5.670959 -3.400603 -116.674144 -54.545276 89.732564 0.000000 0.000000 0.000000 15.998483 11.887309 2.103934 31.114921 8.491220 -0.137439 159.930525 61.214535 145.089943 0.000000 0.000000 0.000000 
-1.631950 0.944060 0.852710 -0.753730 -15.670828 2.235499 -0.518105 0.046990 0.497081 3.325967 -0.299521 -2.354166 1.382474 4.067199 5.851469 0.000000 0.000000 0.000000 0.626483 0.126994 -1.737559 -1.567089 0.159445 0.634628 0.852721 0.051712 2.698469 0.000000 0.000000 0.000000 -2.509245 0.184924 -4.222189 -1.044595 0.699159 4.326428 3.284462 -1.061775 2.976197 -1.169865 0.845675 -8.591299 0.000000 0.000000 0.000000 -20.784882 -5.149075 3.507073 -36.233730 -5.537735 -3.371703 -117.879447 -54.201956 90.589903 0.000000 0.000000 0.000000 15.626977 12.685114 2.614805 30.418161 9.573659 0.061228 161.151824 61.569753 147.559912 0.000000 0.000000 0.000000 
-1.631639 0.944501 0.852417 -0.765277 -15.448943 2.532423 -0.377692 0.042723 0.455320 3.295644 -0.251825 -3.027707 1.049444 3.555968 6.520058 0.000000 0.000000 0.000000 0.713322 0.160799 -2.121936 -1.542081 0.159164 0.661581 0.792641 -0.318779 3.031634 0.000000 0.000000 0.000000 -2.510263 0.209387 -4.824153 -1.058751 0.713409 4.525379 3.420597 -0.726670 2.984224 -0.711971 0.553559 -8.030200 0.000000 0.000000 0.000000 -20.777276 -5.332421 3.486833 -36.196774 -5.634583 -3.301261 -118.578212 -54.387589 91.412368 0.000000 0.000000 0.000000 15.457974 13.369274 3.073208 30.004904 10.094749 0.135426 162.775651 62.346363 151.002676 0.000000 0.000000 0.000000 
